<svg width="124" height="219" viewBox="0 0 124 219" fill="none" xmlns="http://www.w3.org/2000/svg">
<path d="M48.3179 16.11V84.9803C40.7462 80.6306 31.4024 78.939 21.4948 82.4027C10.7011 86.2691 2.40445 95.8545 0.471257 107.132C-3.23404 129.202 15.4535 148.051 37.4437 144.587C53.2314 142.09 64.4279 127.591 64.4279 111.562V32.22H80.5379C89.3984 32.22 96.6478 24.9705 96.6478 16.11C96.6478 7.2495 89.3984 0 80.5379 0H64.4279C55.5674 0 48.3179 7.2495 48.3179 16.11Z" fill="white" fill-opacity="0.5"/>
<path d="M75.3179 90.11L75.3179 158.98C67.7462 154.631 58.4024 152.939 48.4948 156.403C37.7011 160.269 29.4045 169.855 27.4713 181.132C23.766 203.202 42.4535 222.051 64.4437 218.587C80.2314 216.09 91.4279 201.591 91.4279 185.562L91.4279 106.22L107.538 106.22C116.398 106.22 123.648 98.9705 123.648 90.11C123.648 81.2495 116.398 74 107.538 74H91.4279C82.5674 74 75.3179 81.2495 75.3179 90.11Z" fill="white" fill-opacity="0.5"/>
</svg>
